<svg width="24" height="25" viewBox="0 0 24 25" fill="none" xmlns="http://www.w3.org/2000/svg">
<path d="M15.402 21.7271V14.7611H17.735L18.084 12.0531H15.402V10.3251C15.402 9.54105 15.62 9.00605 16.744 9.00605H18.178V6.58405C17.4838 6.5104 16.7861 6.47468 16.088 6.47705C14.021 6.47705 12.606 7.73905 12.606 10.0571V12.0531H10.268V14.7611H12.606V21.7271H4C3.73478 21.7271 3.48043 21.6217 3.29289 21.4342C3.10536 21.2466 3 20.9923 3 20.7271V4.72705C3 4.46183 3.10536 4.20748 3.29289 4.01994C3.48043 3.83241 3.73478 3.72705 4 3.72705H20C20.2652 3.72705 20.5196 3.83241 20.7071 4.01994C20.8946 4.20748 21 4.46183 21 4.72705V20.7271C21 20.9923 20.8946 21.2466 20.7071 21.4342C20.5196 21.6217 20.2652 21.7271 20 21.7271H15.402Z" fill="#F2F9F5"/>
</svg>
