<svg width="24" height="25" viewBox="0 0 24 25" fill="none" xmlns="http://www.w3.org/2000/svg">
<path d="M20 4.72705H4C2.9 4.72705 2.01 5.62705 2.01 6.72705L2 18.7271C2 19.8271 2.9 20.7271 4 20.7271H20C21.1 20.7271 22 19.8271 22 18.7271V6.72705C22 5.62705 21.1 4.72705 20 4.72705ZM20 8.25705C20 8.54943 19.8494 8.82119 19.6014 8.97615L12.53 13.3958C12.2057 13.5985 11.7943 13.5985 11.47 13.3958L4.39856 8.97615C4.15062 8.82119 4 8.54943 4 8.25705C4 7.591 4.73263 7.18494 5.29744 7.53795L11.47 11.3958C11.7943 11.5985 12.2057 11.5985 12.53 11.3958L18.7026 7.53795C19.2674 7.18494 20 7.591 20 8.25705Z" fill="#F2F9F5"/>
</svg>
